{"title":"Bellator 144 Prelims 720p WEB-DL x264 -={SPARROW}=-","uid":12625337,"size":3035538209,"categoryP":"video","categoryS":"hd___tv_shows","magnet":"?xt=urn:btih:92a417ac3e6c3fa5b6d25ec6d9079c6c520720ff&amp;dn=Bellator+144+Prelims+720p+WEB-DL+x264+-%3D%7BSPARROW%7D%3D-&amp;tr=udp%3A%2F%2Ftracker.leechers-paradise.org%3A6969&amp;tr=udp%3A%2F%2Fzer0day.ch%3A1337&amp;tr=udp%3A%2F%2Fopen.demonii.com%3A1337&amp;tr=udp%3A%2F%2Ftracker.coppersurfer.tk%3A6969&amp;tr=udp%3A%2F%2Fexodus.desync.com%3A6969","seeders":2,"leechers":0,"uploader":"CenaCme","files":2,"time":1445766899,"description":"General\r\nComplete name                            : Bellator.144.Prelims.720p.WEB-DL.x264.mp4\r\nFormat                                   : MPEG-4\r\nFormat profile                           : Base Media\r\nCodec ID                                 : isom\r\nFile size                                : 2.83 GiB\r\nDuration                                 : 1h 57mn\r\nOverall bit rate mode                    : Variable\r\nOverall bit rate                         : 3 444 Kbps\r\nWriting application                      : Lavf56.40.101\r\n\r\nVideo\r\nID                                       : 1\r\nFormat                                   : AVC\r\nFormat/Info                              : Advanced Video Codec\r\nFormat profile                           :   \r\nFormat settings, CABAC                   : Yes\r\nFormat settings, ReFrames                : 4 frames\r\nFormat settings, GOP                     : M=4, N=90\r\nCodec ID                                 : avc1\r\nCodec ID/Info                            : Advanced Video Coding\r\nDuration                                 : 1h 57mn\r\nBit rate mode                            : Constant\r\nBit rate                                 : 3 404 Kbps\r\nWidth                                    : 1 280 pixels\r\nHeight                                   : 720 pixels\r\nDisplay aspect ratio                     : 16:9\r\nFrame rate mode                          : Variable\r\nFrame rate                               : 29.970 fps\r\nMinimum frame rate                       : 29.412 fps\r\nMaximum frame rate                       : 30.303 fps\r\nStandard                                 : NTSC\r\nColor space                              : YUV\r\nChroma subsampling                       : 4:2:0\r\nBit depth                                : 8 bits\r\nScan type                                : Progressive\r\nBits/(Pixel*Frame)                       : 0.123\r\nStream size                              : 2.78 GiB (98%)\r\nColor primaries                          : BT.709\r\nTransfer characteristics                 : BT.709\r\nMatrix coefficients                      : BT.709\r\n\r\nAudio\r\nID                                       : 2\r\nFormat                                   : AAC\r\nFormat/Info                              : Advanced Audio Codec\r\nFormat profile                           : HE-AAC / LC\r\nCodec ID                                 : 40\r\nDuration                                 : 1h 57mn\r\nBit rate mode                            : Variable\r\nBit rate                                 : 48.0 Kbps\r\nChannel(s)                               : 2 channels\r\nChannel positions                        : Front: L R\r\nSampling rate                            : 48.0 KHz / 24.0 KHz\r\nCompression mode                         : Lossy\r\nStream size                              : 39.3 MiB (1%)\r\n\r\nText #1\r\nID                                       : 1-CC1\r\nFormat                                   : EIA-608\r\nMuxing mode                              : SCTE 128 / DTVCC Transport\r\nMuxing mode, more info                   : Muxed in Video #1\r\nDuration                                 : 1h 57mn\r\nBit rate mode                            : Constant\r\nStream size                              : 0.00 Byte (0%)\r\nEncoded stream size                      : 0.00 Byte (0%)\r\n\r\nText #2\r\nID                                       : 1-1\r\nFormat                                   : EIA-708\r\nMuxing mode                              : SCTE 128 / DTVCC Transport\r\nMuxing mode, more info                   : Muxed in Video #1\r\nDuration                                 : 1h 57mn\r\nBit rate mode                            : Constant\r\nStream size                              : 0.00 Byte (0%)\r\nEncoded stream size                      : 0.00 Byte (0%)\r\n\r\n\r\nThumb sheets:\r\n \nhttp://imgsparrow.co/image/8Rz","torrent":{"xt":"urn:btih:92a417ac3e6c3fa5b6d25ec6d9079c6c520720ff","amp;dn":"Bellator+144+Prelims+720p+WEB-DL+x264+-%3D%7BSPARROW%7D%3D-","amp;tr":["udp%3A%2F%2Ftracker.leechers-paradise.org%3A6969","udp%3A%2F%2Fzer0day.ch%3A1337","udp%3A%2F%2Fopen.demonii.com%3A1337","udp%3A%2F%2Ftracker.coppersurfer.tk%3A6969","udp%3A%2F%2Fexodus.desync.com%3A6969"],"infoHash":"92a417ac3e6c3fa5b6d25ec6d9079c6c520720ff","infoHashBuffer":{"type":"Buffer","data":[146,164,23,172,62,108,63,165,182,210,94,198,217,7,156,108,82,7,32,255]},"announce":[],"urlList":[]}}